<svg width="35" height="35" viewBox="0 0 48 38" fill="none" xmlns="http://www.w3.org/2000/svg">
<path d="M4.2213 34.1893C1.47467 31.272 0 28 0 22.696C0 13.3627 6.552 4.99733 16.08 0.861328L18.4613 4.53603C9.568 9.34673 7.8293 15.5893 7.136 19.5253C8.568 18.784 10.4427 18.5253 12.28 18.696C17.0907 19.1413 20.8827 23.0907 20.8827 28C20.8827 30.4753 19.8993 32.8493 18.149 34.5997C16.3987 36.35 14.0247 37.3333 11.5493 37.3333C8.688 37.3333 5.952 36.0267 4.2213 34.1893ZM30.888 34.1893C28.1413 31.272 26.6667 28 26.6667 22.696C26.6667 13.3627 33.2187 4.99733 42.7467 0.861328L45.128 4.53603C36.2347 9.34673 34.496 15.5893 33.8027 19.5253C35.2347 18.784 37.1093 18.5253 38.9467 18.696C43.7573 19.1413 47.5493 23.0907 47.5493 28C47.5493 30.4753 46.566 32.8493 44.8157 34.5997C43.0653 36.35 40.6914 37.3333 38.216 37.3333C35.3547 37.3333 32.6187 36.0267 30.888 34.1893Z" fill="#001C70"/>
</svg>
