
<svg width="264" height="525" viewBox="0 0 264 525" fill="none" xmlns="http://www.w3.org/2000/svg">
<g opacity="0.1">
<path d="M168.628 89.999C163.443 87.9199 157.807 86.7676 151.87 86.7676H149.916C148.463 86.8427 147.06 87.0181 145.608 87.2185C144.155 87.5942 142.827 88.1704 141.55 88.9218C137.567 91.4518 134.911 95.8856 134.911 100.946C134.911 106.882 138.644 112.017 143.879 114.097C145.457 114.723 147.236 115.099 149.064 115.099C150.893 115.099 152.722 114.723 154.325 114.097C168.227 115.675 180.251 123.64 187.315 134.963C188.016 131.731 188.442 128.325 188.442 124.843C188.442 115.549 185.586 106.957 180.802 99.7432C177.871 95.3095 173.638 91.9779 168.628 89.999Z" fill="#CBD5E0"/>
<path d="M154.731 155.332C150.247 155.332 145.888 155.783 141.58 156.584C141.454 156.584 141.254 156.659 141.129 156.659C140.928 156.659 140.678 156.659 140.503 156.735C139.551 156.86 138.549 157.06 137.597 157.236C137.096 157.311 136.645 157.436 136.144 157.561C135.643 157.636 135.142 157.762 134.616 157.937C134.04 157.812 133.414 157.737 132.963 157.561C104.882 152.05 83.7655 127.352 83.7655 97.6929C83.7655 95.163 83.9659 92.7081 84.2665 90.3034C84.8426 85.6943 85.9197 81.2104 87.4227 76.9019C88.4247 74.0463 89.7022 71.2657 91.1551 68.6105C96.5157 58.6909 104.506 50.3996 114.301 44.8386C123.269 39.6032 133.764 36.5472 144.911 36.5472C146.815 36.5472 148.694 36.6724 150.547 36.7977C150.547 36.7977 150.623 36.7977 150.673 36.7977H152.326C157.135 36.7977 161.744 37.3738 166.178 38.4509C173.944 40.2295 181.108 43.5109 187.37 47.8695H187.445C188.648 47.1181 189.775 46.2914 190.927 45.4147C193.006 43.5109 195.286 41.8076 197.64 40.3046C197.766 40.1042 197.841 40.0541 197.966 40.0541C199.168 38.977 200.421 37.975 201.623 36.8227L205.406 33.416C209.188 29.7588 212.745 25.9012 216.027 21.793C211.418 23.0455 206.608 23.9974 201.799 24.7739C195.286 25.7759 188.723 26.302 181.934 26.302C180.406 26.302 178.778 26.2268 177.2 26.1767C165.828 22.5195 153.754 20.3652 141.279 19.9143C139.701 19.8392 138.173 19.7891 136.67 19.7891C124.922 19.7891 113.474 21.3672 102.603 24.2729C89.4016 18.211 77.3779 9.99474 66.9573 0C66.8821 1.95386 66.832 3.90771 66.832 5.93671C66.832 21.2419 69.4121 35.9711 74.2216 49.623C71.4912 53.6059 68.9863 57.7892 66.6316 62.0225C56.5116 80.7345 50.8254 102.052 50.8254 124.746C50.8254 125.748 50.8254 126.826 50.9006 127.853C18.9124 171.464 0 225.345 0 283.635C0 337.567 16.182 387.691 43.9368 429.498C43.9368 429.498 43.9368 429.498 44.012 429.574C54.8333 443.927 66.331 457.829 78.3297 471.231C79.4068 472.233 81.9369 475.088 82.1122 475.464C88.7503 482.678 95.5137 489.742 102.477 496.656C111.971 506.2 121.766 515.368 131.81 524.286C131.936 523.785 131.936 523.284 131.936 522.758C131.936 517.773 129.907 513.264 126.675 509.932C127.051 509.857 127.377 509.857 127.752 509.732C132.437 508.53 136.344 505.498 138.824 501.44C133.764 492.523 129.205 483.355 125.222 473.811C125.147 473.736 125.147 473.611 125.097 473.56C124.646 472.433 124.22 471.356 123.769 470.279C121.089 463.666 118.785 456.877 116.655 450.014C120.263 450.54 123.87 450.916 127.477 451.291C128.754 455.475 130.383 459.508 132.487 463.265C135.217 460.986 137.872 458.656 140.528 456.251C141.555 454.999 142.557 453.721 143.559 452.469C149.746 452.719 155.958 452.794 162.145 452.569C162.145 444.278 162.145 435.961 162.145 427.67C192.38 383.958 214.474 334.16 226.172 280.504C228 272.538 229.528 264.447 230.781 256.281C231.933 249.368 232.835 242.429 233.536 235.415C233.687 234.062 233.737 232.71 233.687 231.357C232.083 188.998 197.365 155.332 154.731 155.332Z" fill="#CBD5E0"/>
<path d="M220.388 443.374C220.388 378.196 220.388 312.992 220.388 247.813C163.701 262.116 99.5243 239.672 42.8373 185.791C113.302 219.883 193.109 219.883 263.573 185.791C263.573 266.224 263.573 346.633 263.573 427.067C249.521 433.881 235.067 439.291 220.388 443.374Z" fill="#EDF2F7"/>
<path d="M220.362 443.373C220.362 458.603 220.362 473.833 220.362 489.088C201.6 493.823 181.987 494.499 162.122 491.368C162.122 478.392 162.122 465.417 162.122 452.441C181.686 451.74 201.225 448.709 220.362 443.373Z" fill="#EDF2F7"/>
<path d="M220.392 247.813C220.392 312.992 220.392 378.196 220.392 443.374C201.254 448.71 181.715 451.741 162.152 452.442C162.152 399.337 162.152 346.207 162.152 293.102C124.076 292.927 80.9411 254.151 42.8408 185.791C99.5278 239.672 163.705 262.116 220.392 247.813Z" fill="#E2E8F0"/>
<path d="M162.137 452.444C162.137 465.42 162.137 478.395 162.137 491.371C122.008 485.058 80.7512 463.115 42.8263 427.069C80.8514 445.455 121.607 453.922 162.137 452.444Z" fill="#E2E8F0"/>
</g>
</svg>
