<svg width="94" height="87" viewBox="0 0 94 87" fill="none" xmlns="http://www.w3.org/2000/svg">
<path d="M85.4673 8.19924C96.0233 18.7832 96.3873 35.6392 86.5687 46.6339L46.9953 86.2633L7.43134 46.6339C-2.38733 35.6392 -2.01866 18.7552 8.53267 8.19924C19.1027 -2.36609 36.01 -2.72076 47.0047 7.13524C57.9667 -2.70676 74.9067 -2.38009 85.4673 8.19924ZM15.136 14.8026C8.18267 21.7559 7.83267 32.8859 14.24 40.2406L47 73.0519L79.76 40.2452C86.172 32.8859 85.822 21.7699 78.8593 14.7932C71.92 7.83991 60.748 7.50391 53.412 13.9252L33.8027 33.5392L27.1993 26.9406L40.3827 13.7479L40 13.4259C32.65 7.52257 21.9073 8.02657 15.136 14.8026Z" fill="#5ACCCC"/>
</svg>
