<svg width="28" height="28" viewBox="0 0 28 28" fill="none" xmlns="http://www.w3.org/2000/svg">
<path d="M14 0.666504C17.6227 0.666504 18.0747 0.679837 19.496 0.746504C20.916 0.813171 21.8827 1.03584 22.7334 1.3665C23.6134 1.70517 24.3547 2.16384 25.096 2.90384C25.774 3.57037 26.2986 4.37662 26.6334 5.2665C26.9627 6.11584 27.1867 7.08384 27.2534 8.50384C27.316 9.92517 27.3334 10.3772 27.3334 13.9998C27.3334 17.6225 27.32 18.0745 27.2534 19.4958C27.1867 20.9158 26.9627 21.8825 26.6334 22.7332C26.2996 23.6235 25.7748 24.43 25.096 25.0958C24.4293 25.7736 23.6231 26.2982 22.7334 26.6332C21.884 26.9625 20.916 27.1865 19.496 27.2532C18.0747 27.3158 17.6227 27.3332 14 27.3332C10.3774 27.3332 9.92535 27.3198 8.50402 27.2532C7.08402 27.1865 6.11735 26.9625 5.26669 26.6332C4.37646 26.2991 3.57006 25.7744 2.90402 25.0958C2.2259 24.4294 1.70126 23.6231 1.36669 22.7332C1.03602 21.8838 0.813354 20.9158 0.746687 19.4958C0.68402 18.0745 0.666687 17.6225 0.666687 13.9998C0.666687 10.3772 0.68002 9.92517 0.746687 8.50384C0.813354 7.0825 1.03602 6.11717 1.36669 5.2665C1.70034 4.37608 2.22509 3.5696 2.90402 2.90384C3.57025 2.22548 4.37659 1.70081 5.26669 1.3665C6.11735 1.03584 7.08269 0.813171 8.50402 0.746504C9.92535 0.683837 10.3774 0.666504 14 0.666504ZM14 7.33317C12.2319 7.33317 10.5362 8.03555 9.28598 9.28579C8.03573 10.536 7.33335 12.2317 7.33335 13.9998C7.33335 15.7679 8.03573 17.4636 9.28598 18.7139C10.5362 19.9641 12.2319 20.6665 14 20.6665C15.7681 20.6665 17.4638 19.9641 18.7141 18.7139C19.9643 17.4636 20.6667 15.7679 20.6667 13.9998C20.6667 12.2317 19.9643 10.536 18.7141 9.28579C17.4638 8.03555 15.7681 7.33317 14 7.33317ZM22.6667 6.99984C22.6667 6.55781 22.4911 6.13389 22.1785 5.82133C21.866 5.50877 21.442 5.33317 21 5.33317C20.558 5.33317 20.1341 5.50877 19.8215 5.82133C19.5089 6.13389 19.3334 6.55781 19.3334 6.99984C19.3334 7.44186 19.5089 7.86579 19.8215 8.17835C20.1341 8.49091 20.558 8.6665 21 8.6665C21.442 8.6665 21.866 8.49091 22.1785 8.17835C22.4911 7.86579 22.6667 7.44186 22.6667 6.99984ZM14 9.99984C15.0609 9.99984 16.0783 10.4213 16.8284 11.1714C17.5786 11.9216 18 12.939 18 13.9998C18 15.0607 17.5786 16.0781 16.8284 16.8283C16.0783 17.5784 15.0609 17.9998 14 17.9998C12.9392 17.9998 11.9217 17.5784 11.1716 16.8283C10.4214 16.0781 10 15.0607 10 13.9998C10 12.939 10.4214 11.9216 11.1716 11.1714C11.9217 10.4213 12.9392 9.99984 14 9.99984Z" fill="#9ECAFF"/>
</svg>
