<svg width="150" height="38" viewBox="0 0 150 38" fill="none" xmlns="http://www.w3.org/2000/svg">
                <path
                  d="M38.9562 12.962V25.0917H37.4171V23.0061C36.7622 23.8001 36.0301 24.4008 35.2154 24.8004C34.4007 25.2026 33.5113 25.4011 32.5445 25.4011C30.8275 25.4011 29.3606 24.7798 28.1464 23.5346C26.9321 22.2894 26.3237 20.7761 26.3237 18.9921C26.3237 17.2441 26.9372 15.7514 28.1644 14.5088C29.3916 13.2662 30.8662 12.6475 32.5909 12.6475C33.5861 12.6475 34.4884 12.8589 35.2953 13.2817C36.1022 13.7045 36.8086 14.3412 37.4196 15.1894V12.9594H38.9562V12.962ZM32.7173 14.1556C31.8484 14.1556 31.0467 14.3696 30.3119 14.795C29.5772 15.2229 28.992 15.821 28.5588 16.5945C28.1257 17.3653 27.9066 18.1826 27.9066 19.0436C27.9066 19.897 28.1257 20.7142 28.564 21.4928C29.0023 22.2714 29.5901 22.8798 30.33 23.3129C31.0699 23.7486 31.8613 23.9651 32.7069 23.9651C33.5603 23.9651 34.3698 23.7512 35.1355 23.318C35.9012 22.8875 36.489 22.3049 36.9014 21.5701C37.3139 20.8354 37.5202 20.0078 37.5202 19.0874C37.5202 17.685 37.0587 16.512 36.1332 15.5684C35.2077 14.6274 34.0682 14.1556 32.7173 14.1556Z"
                  fill="#EDF2F7" />
                <path
                  d="M42.457 8.28033H44.0167V17.8578L49.6394 12.9621H51.9313L45.2645 18.7498L52.3232 25.0944H50.1267L44.0167 19.6315V25.0944H42.457V8.28033Z"
                  fill="#EDF2F7" />
                <path
                  d="M66.015 12.962V25.0917H64.4759V23.0061C63.8211 23.8001 63.089 24.4008 62.2743 24.8004C61.4596 25.2026 60.5702 25.4011 59.6034 25.4011C57.8864 25.4011 56.4195 24.7798 55.2053 23.5346C53.991 22.2894 53.3826 20.7761 53.3826 18.9921C53.3826 17.2441 53.9961 15.7514 55.2233 14.5088C56.4505 13.2662 57.9251 12.6475 59.6498 12.6475C60.645 12.6475 61.5473 12.8589 62.3542 13.2817C63.1611 13.7045 63.8675 14.3412 64.4785 15.1894V12.9594H66.015V12.962ZM59.7787 14.1556C58.9099 14.1556 58.1082 14.3696 57.3734 14.795C56.6387 15.2229 56.0534 15.821 55.6203 16.5945C55.1872 17.3653 54.9681 18.1826 54.9681 19.0436C54.9681 19.897 55.1872 20.7142 55.6255 21.4928C56.0638 22.2714 56.6515 22.8798 57.3914 23.3129C58.1313 23.7486 58.9228 23.9651 59.7684 23.9651C60.6218 23.9651 61.4313 23.7512 62.1969 23.318C62.9626 22.8875 63.5504 22.3049 63.9629 21.5701C64.3754 20.8354 64.5816 20.0078 64.5816 19.0874C64.5816 17.685 64.1202 16.512 63.1947 15.5684C62.2666 14.6274 61.1296 14.1556 59.7787 14.1556Z"
                  fill="#EDF2F7" />
                <path
                  d="M81.635 8.28033V25.0944H80.0959V23.0088C79.4411 23.8028 78.7089 24.4035 77.8943 24.8031C77.0796 25.2053 76.1902 25.4038 75.2234 25.4038C73.5064 25.4038 72.0395 24.7825 70.8253 23.5373C69.611 22.2921 69.0026 20.7788 69.0026 18.9947C69.0026 17.2468 69.6161 15.7541 70.8433 14.5115C72.0705 13.2689 73.5451 12.6501 75.2698 12.6501C76.265 12.6501 77.1673 12.8615 77.9742 13.2843C78.7811 13.7071 79.4875 14.3439 80.0985 15.1921V8.28033H81.635ZM75.3987 14.1557C74.5299 14.1557 73.7281 14.3697 72.9934 14.7951C72.2587 15.223 71.6734 15.8212 71.2403 16.5946C70.8072 17.3654 70.5881 18.1827 70.5881 19.0437C70.5881 19.8971 70.8072 20.7143 71.2455 21.4929C71.6837 22.2715 72.2715 22.8799 73.0114 23.313C73.7488 23.7487 74.5428 23.9652 75.3884 23.9652C76.2417 23.9652 77.0513 23.7513 77.8169 23.3181C78.5826 22.8876 79.1704 22.305 79.5829 21.5702C79.9954 20.8355 80.2016 20.0079 80.2016 19.0875C80.2016 17.6851 79.7402 16.5121 78.8146 15.5685C77.8865 14.6275 76.7496 14.1557 75.3987 14.1557Z"
                  fill="#EDF2F7" />
                <path
                  d="M95.3839 21.0673L96.6987 21.7582C96.2681 22.6064 95.768 23.2896 95.2034 23.8104C94.6388 24.3311 94.002 24.7256 93.2956 24.9989C92.5892 25.2696 91.7901 25.4062 90.8955 25.4062C88.9155 25.4062 87.3687 24.7565 86.2524 23.4598C85.1361 22.163 84.5792 20.6961 84.5792 19.0616C84.5792 17.5225 85.051 16.151 85.9972 14.947C87.196 13.4156 88.7969 12.65 90.8078 12.65C92.8754 12.65 94.5279 13.4337 95.7628 15.0037C96.6394 16.1123 97.0854 17.4941 97.1008 19.1518H86.1853C86.2163 20.5594 86.6649 21.717 87.5363 22.6167C88.4076 23.5165 89.4827 23.9676 90.7614 23.9676C91.3801 23.9676 91.9808 23.8594 92.5635 23.6454C93.1487 23.4314 93.6437 23.1452 94.0536 22.7895C94.4635 22.4337 94.9069 21.8588 95.3839 21.0673ZM95.3839 17.8009C95.175 16.9682 94.8734 16.3031 94.4738 15.8055C94.0742 15.3079 93.5483 14.9058 92.8935 14.6016C92.2386 14.2973 91.5503 14.1452 90.8284 14.1452C89.6374 14.1452 88.6139 14.5294 87.758 15.2951C87.1315 15.8519 86.6597 16.6898 86.34 17.8035H95.3839V17.8009Z"
                  fill="#EDF2F7" />
                <path
                  d="M99.9982 12.9619H101.558V15.0579C102.102 14.2845 102.659 13.7199 103.234 13.3641C104.023 12.8897 104.853 12.65 105.724 12.65C106.312 12.65 106.871 12.766 107.397 12.9954C107.926 13.2249 108.356 13.5317 108.691 13.9158C109.027 14.2999 109.315 14.8465 109.563 15.5606C110.081 14.6093 110.731 13.8874 111.509 13.3924C112.288 12.8975 113.126 12.65 114.023 12.65C114.861 12.65 115.601 12.8614 116.243 13.2842C116.884 13.707 117.361 14.2999 117.671 15.0579C117.983 15.8158 118.137 16.9527 118.137 18.4686V25.0917H116.544V18.4686C116.544 17.1693 116.451 16.2747 116.266 15.7875C116.08 15.3002 115.763 14.9083 115.314 14.6119C114.866 14.3154 114.332 14.1659 113.708 14.1659C112.953 14.1659 112.262 14.3876 111.636 14.8336C111.009 15.2796 110.553 15.8751 110.264 16.6176C109.975 17.3601 109.831 18.6027 109.831 20.3403V25.0891H108.271V18.8786C108.271 17.4142 108.181 16.4191 107.998 15.8957C107.815 15.3724 107.498 14.9522 107.044 14.6351C106.59 14.318 106.051 14.1607 105.428 14.1607C104.706 14.1607 104.033 14.3773 103.404 14.813C102.775 15.2486 102.311 15.8339 102.009 16.5686C101.707 17.3034 101.558 18.43 101.558 19.9459V25.0865H99.9982V12.9619Z"
                  fill="#EDF2F7" />
                <path
                  d="M121.969 7.96576C122.325 7.96576 122.626 8.09208 122.879 8.34473C123.132 8.59738 123.255 8.90159 123.255 9.25994C123.255 9.61056 123.129 9.90961 122.879 10.1623C122.626 10.4149 122.325 10.5412 121.969 10.5412C121.621 10.5412 121.322 10.4149 121.069 10.1623C120.817 9.90961 120.693 9.60798 120.693 9.25994C120.693 8.90417 120.819 8.59738 121.069 8.34473C121.322 8.09208 121.621 7.96576 121.969 7.96576ZM121.196 12.962H122.755V25.0918H121.196V12.962Z"
                  fill="#EDF2F7" />
                <path
                  d="M127.717 22.6401C128.096 22.6401 128.419 22.7741 128.687 23.0423C128.955 23.3104 129.089 23.6378 129.089 24.0245C129.089 24.4035 128.955 24.7283 128.687 24.999C128.419 25.2697 128.096 25.4063 127.717 25.4063C127.338 25.4063 127.016 25.2697 126.748 24.999C126.48 24.7283 126.346 24.4035 126.346 24.0245C126.346 23.6378 126.48 23.3104 126.748 23.0423C127.016 22.7741 127.338 22.6401 127.717 22.6401Z"
                  fill="#EDF2F7" />
                <path
                  d="M144.409 12.962V25.0917H142.869V23.0061C142.215 23.8001 141.483 24.4008 140.668 24.8004C139.853 25.2026 138.964 25.4011 137.997 25.4011C136.28 25.4011 134.813 24.7798 133.599 23.5346C132.385 22.2894 131.776 20.7761 131.776 18.9921C131.776 17.2441 132.39 15.7514 133.617 14.5088C134.844 13.2662 136.319 12.6475 138.043 12.6475C139.039 12.6475 139.941 12.8589 140.748 13.2817C141.555 13.7045 142.261 14.3412 142.872 15.1894V12.9594H144.409V12.962ZM138.17 14.1556C137.301 14.1556 136.499 14.3696 135.764 14.795C135.03 15.2229 134.444 15.821 134.011 16.5945C133.576 17.3653 133.359 18.1826 133.359 19.0436C133.359 19.897 133.578 20.7142 134.016 21.4928C134.455 22.2714 135.043 22.8798 135.782 23.3129C136.522 23.7486 137.314 23.9651 138.159 23.9651C139.013 23.9651 139.822 23.7512 140.588 23.318C141.354 22.8875 141.941 22.3049 142.354 21.5701C142.766 20.8354 142.973 20.0078 142.973 19.0874C142.973 17.685 142.511 16.512 141.586 15.5684C140.66 14.6274 139.521 14.1556 138.17 14.1556Z"
                  fill="#EDF2F7" />
                <path d="M147.69 8.28033H149.25V25.0944H147.69V8.28033Z" fill="#EDF2F7" />
                <path
                  d="M12.2221 6.5234C11.8463 6.3727 11.4378 6.28918 11.0075 6.28918H10.8658C10.7605 6.29463 10.6589 6.30734 10.5536 6.32187C10.4483 6.3491 10.352 6.39086 10.2594 6.44532C9.97077 6.6287 9.77832 6.95005 9.77832 7.3168C9.77832 7.74709 10.0488 8.11929 10.4283 8.26998C10.5427 8.31537 10.6716 8.3426 10.8041 8.3426C10.9367 8.3426 11.0692 8.31537 11.1854 8.26998C12.193 8.38436 13.0645 8.96171 13.5765 9.78235C13.6273 9.54814 13.6582 9.30123 13.6582 9.04886C13.6582 8.37528 13.4512 7.75254 13.1045 7.22965C12.892 6.9083 12.5852 6.66683 12.2221 6.5234Z"
                  fill="#CBD5E0" />
                <path
                  d="M11.2148 11.2584C10.8898 11.2584 10.5739 11.2911 10.2616 11.3492C10.2526 11.3492 10.238 11.3546 10.229 11.3546C10.2144 11.3546 10.1963 11.3546 10.1836 11.3601C10.1146 11.3691 10.0419 11.3837 9.97295 11.3964C9.93664 11.4018 9.90397 11.4109 9.86765 11.42C9.83134 11.4254 9.79503 11.4345 9.7569 11.4472C9.71514 11.4381 9.66976 11.4327 9.63708 11.42C7.60182 11.0205 6.07128 9.23038 6.07128 7.08074C6.07128 6.89737 6.08581 6.71944 6.1076 6.54515C6.14936 6.21108 6.22742 5.8861 6.33636 5.57382C6.40898 5.36684 6.50158 5.16531 6.60688 4.97286C6.99542 4.25389 7.57458 3.65294 8.28447 3.24988C8.93445 2.87043 9.69517 2.64893 10.5031 2.64893C10.6411 2.64893 10.7773 2.658 10.9116 2.66708C10.9116 2.66708 10.9171 2.66708 10.9207 2.66708H11.0405C11.3891 2.66708 11.7232 2.70884 12.0445 2.78691C12.6074 2.91581 13.1266 3.15365 13.5805 3.46956H13.586C13.6731 3.4151 13.7548 3.35518 13.8383 3.29164C13.989 3.15365 14.1542 3.0302 14.3249 2.92126C14.334 2.90674 14.3394 2.9031 14.3485 2.9031C14.4356 2.82504 14.5264 2.75241 14.6136 2.6689L14.8877 2.42198C15.1619 2.1569 15.4197 1.8773 15.6575 1.57955C15.3235 1.67033 14.9749 1.73932 14.6263 1.7956C14.1542 1.86823 13.6785 1.90635 13.1865 1.90635C13.0758 1.90635 12.9578 1.90091 12.8434 1.89728C12.0191 1.6322 11.144 1.47606 10.2398 1.44338C10.1255 1.43794 10.0147 1.4343 9.90578 1.4343C9.05427 1.4343 8.22456 1.54868 7.4366 1.75929C6.47979 1.31992 5.60831 0.724415 4.85304 0C4.84759 0.141615 4.84395 0.283229 4.84395 0.430291C4.84395 1.53961 5.03096 2.60717 5.37955 3.59666C5.18165 3.88533 5.0001 4.18853 4.82943 4.49537C4.09594 5.8516 3.6838 7.39665 3.6838 9.04156C3.6838 9.11419 3.6838 9.19226 3.68925 9.2667C1.37076 12.4276 0 16.3329 0 20.5578C0 24.4667 1.17286 28.0997 3.18452 31.1299C3.18452 31.1299 3.18452 31.1299 3.18997 31.1353C3.9743 32.1756 4.80764 33.1833 5.6773 34.1546C5.75537 34.2272 5.93875 34.4342 5.95146 34.4614C6.43258 34.9843 6.92279 35.4963 7.42752 35.9974C8.11562 36.6892 8.82551 37.3537 9.55356 38C9.56264 37.9637 9.56264 37.9274 9.56264 37.8892C9.56264 37.5279 9.41558 37.2011 9.18137 36.9597C9.2086 36.9542 9.2322 36.9542 9.25943 36.9451C9.59895 36.858 9.88218 36.6383 10.0619 36.3442C9.69518 35.6978 9.36474 35.0333 9.07606 34.3416C9.07061 34.3362 9.07062 34.3271 9.06698 34.3235C9.0343 34.2418 9.00344 34.1637 8.97076 34.0856C8.77649 33.6063 8.60946 33.1143 8.45514 32.6168C8.71658 32.6549 8.97802 32.6822 9.23947 32.7094C9.33206 33.0126 9.45007 33.3049 9.60258 33.5773C9.80048 33.412 9.99293 33.2432 10.1854 33.0689C10.2598 32.9781 10.3324 32.8855 10.4051 32.7947C10.8535 32.8129 11.3038 32.8183 11.7522 32.802C11.7522 32.201 11.7522 31.5983 11.7522 30.9973C13.9436 27.8291 15.545 24.2198 16.3928 20.3308C16.5254 19.7535 16.6361 19.167 16.7269 18.5752C16.8104 18.0741 16.8758 17.5711 16.9266 17.0628C16.9375 16.9647 16.9411 16.8667 16.9375 16.7687C16.8213 13.6985 14.3049 11.2584 11.2148 11.2584Z"
                  fill="#CBD5E0" />
                <path
                  d="M15.9736 32.1356C15.9736 27.4115 15.9736 22.6856 15.9736 17.9614C11.865 18.9981 7.21344 17.3714 3.1048 13.4661C8.21201 15.9371 13.9964 15.9371 19.1036 13.4661C19.1036 19.2959 19.1036 25.1239 19.1036 30.9537C18.0851 31.4475 17.0375 31.8397 15.9736 32.1356Z"
                  fill="#EDF2F7" />
                <path
                  d="M15.9717 32.1357C15.9717 33.2396 15.9717 34.3435 15.9717 35.4492C14.6118 35.7923 13.1902 35.8413 11.7505 35.6144C11.7505 34.6739 11.7505 33.7334 11.7505 32.793C13.1685 32.7421 14.5846 32.5225 15.9717 32.1357Z"
                  fill="#EDF2F7" />
                <path
                  d="M15.974 17.9614C15.974 22.6856 15.974 27.4115 15.974 32.1356C14.5869 32.5223 13.1707 32.742 11.7528 32.7929C11.7528 28.9438 11.7528 25.093 11.7528 21.244C8.99308 21.2313 5.86665 18.4208 3.10516 13.4661C7.21381 17.3714 11.8653 18.9981 15.974 17.9614Z"
                  fill="#E2E8F0" />
                <path
                  d="M11.7517 32.7928C11.7517 33.7333 11.7517 34.6738 11.7517 35.6143C8.8431 35.1567 5.85285 33.5663 3.10406 30.9537C5.86011 32.2863 8.81405 32.9 11.7517 32.7928Z"
                  fill="#E2E8F0" />
              </svg>
