<svg width="22" height="29" viewBox="0 0 22 29" fill="none" xmlns="http://www.w3.org/2000/svg">
<path d="M0.333374 28.3335C0.333374 25.5045 1.45718 22.7914 3.45757 20.791C5.45796 18.7906 8.17106 17.6668 11 17.6668C13.829 17.6668 16.5421 18.7906 18.5425 20.791C20.5429 22.7914 21.6667 25.5045 21.6667 28.3335H19C19 26.2118 18.1572 24.1769 16.6569 22.6766C15.1566 21.1763 13.1218 20.3335 11 20.3335C8.87831 20.3335 6.84348 21.1763 5.34319 22.6766C3.8429 24.1769 3.00004 26.2118 3.00004 28.3335H0.333374ZM11 16.3335C6.58004 16.3335 3.00004 12.7535 3.00004 8.3335C3.00004 3.9135 6.58004 0.333496 11 0.333496C15.42 0.333496 19 3.9135 19 8.3335C19 12.7535 15.42 16.3335 11 16.3335ZM11 13.6668C13.9467 13.6668 16.3334 11.2802 16.3334 8.3335C16.3334 5.38683 13.9467 3.00016 11 3.00016C8.05337 3.00016 5.66671 5.38683 5.66671 8.3335C5.66671 11.2802 8.05337 13.6668 11 13.6668Z" fill="#018B8A"/>
</svg>
