<svg width="89" height="12" viewBox="0 0 89 12" fill="none" xmlns="http://www.w3.org/2000/svg">
<path fill-rule="evenodd" clip-rule="evenodd" d="M0.659302 4.64034C0.847625 3.96634 1.16584 3.42503 1.09177 2.99331C0.646782 0.431332 1.06464 -0.233419 3.23844 0.0669412C7.89435 0.710571 12.5351 1.5529 17.1989 2.07572C24.8361 2.92994 32.4812 3.70163 40.1336 4.29641C44.6299 4.64562 49.1522 4.8364 53.6516 4.65354C60.2487 4.38553 66.8389 3.78151 73.425 3.19861C77.8926 2.80253 82.3503 2.21963 86.809 1.67238C88.337 1.48424 88.8419 3.06592 88.7971 4.18419C88.7569 5.18825 87.844 6.75408 87.1022 6.98909C83.6685 8.07699 80.176 8.91602 76.6756 9.6118C52.5744 14.4057 28.7158 11.3671 4.93909 5.93024C3.50502 5.60215 2.09703 5.07867 0.659302 4.64034Z" fill="#02AAAD"/>
</svg>
