<svg width="28" height="22" viewBox="0 0 28 22" fill="none" xmlns="http://www.w3.org/2000/svg">
<path d="M26.724 3.66416C27.3333 6.04016 27.3333 11.0002 27.3333 11.0002C27.3333 11.0002 27.3333 15.9602 26.724 18.3362C26.3853 19.6495 25.3947 20.6828 24.14 21.0322C21.8613 21.6668 14 21.6668 14 21.6668C14 21.6668 6.14266 21.6668 3.85999 21.0322C2.59999 20.6775 1.61066 19.6455 1.27599 18.3362C0.666657 15.9602 0.666656 11.0002 0.666656 11.0002C0.666656 11.0002 0.666657 6.04016 1.27599 3.66416C1.61466 2.35083 2.60532 1.3175 3.85999 0.968162C6.14266 0.333496 14 0.333496 14 0.333496C14 0.333496 21.8613 0.333496 24.14 0.968162C25.4 1.32283 26.3893 2.35483 26.724 3.66416ZM11.3333 15.6668L19.3333 11.0002L11.3333 6.3335V15.6668Z" fill="#9ECAFF"/>
</svg>
